<svg width="50" height="43" viewBox="0 0 50 43" fill="none" xmlns="http://www.w3.org/2000/svg">
<path d="M25.5435 1.12607e-05C35.1359 1.12607e-05 43.0163 8.35045 44.3478 19.1964H50L40.4891 31.994L30.9783 19.1964H37.2826C36.6747 16.0645 35.1828 13.2679 33.0507 11.2631C30.9186 9.2583 28.2721 8.16386 25.5435 8.15848C21.6033 8.15848 18.125 10.4301 15.9239 13.8534L11.2772 7.61458C13.0557 5.22002 15.2491 3.30153 17.7099 1.98812C20.1706 0.674709 22.8417 -0.00318649 25.5435 1.12607e-05ZM24.4565 43C14.8913 43 6.9837 34.6495 5.65217 23.8036H0L9.51087 11.0059C12.6902 15.2612 15.8424 19.5484 19.0217 23.8036H12.7174C13.3253 26.9354 14.8172 29.7321 16.9493 31.7369C19.0814 33.7417 21.7279 34.8361 24.4565 34.8415C28.3967 34.8415 31.875 32.5699 34.0761 29.1466L38.7228 35.3854C36.946 37.7824 34.7529 39.7025 32.2918 41.0162C29.8306 42.3298 27.1587 43.0063 24.4565 43Z" fill="black"/>
</svg>
