<svg width="35" height="56" viewBox="0 0 35 56" fill="none" xmlns="http://www.w3.org/2000/svg">
<path d="M30.1489 55.2414C31.2912 55.2414 32.3867 54.6692 33.1944 53.6507C34.0021 52.6321 34.4559 51.2507 34.4559 49.8103V6.36206C34.4559 4.92166 34.0021 3.54026 33.1944 2.52174C32.3867 1.50323 31.2912 0.93103 30.1489 0.93103H17.2279V19.9397L11.8442 15.8664L6.46048 19.9397V0.93103H4.30699C3.1647 0.93103 2.0692 1.50323 1.26149 2.52174C0.45377 3.54026 0 4.92166 0 6.36206V49.8103C0 51.2507 0.45377 52.6321 1.26149 53.6507C2.0692 54.6692 3.1647 55.2414 4.30699 55.2414H30.1489Z" fill="black"/>
</svg>
