<svg width="45" height="47" viewBox="0 0 45 47" fill="none" xmlns="http://www.w3.org/2000/svg">
<path fill-rule="evenodd" clip-rule="evenodd" d="M31.7567 28.1602C31.1765 28.7686 30.4315 29.1763 29.6223 29.3285L19.9792 31.1414C19.3459 31.2611 18.6943 31.2202 18.0793 31.0221C17.4643 30.8239 16.9039 30.4744 16.4452 30.0029C15.9866 29.5314 15.643 28.9517 15.4435 28.3126C15.2441 27.6736 15.1945 26.9938 15.299 26.3306L16.9062 16.1247C17.0426 15.2556 17.4373 14.4534 18.0345 13.8317L31.3388 1.64379e-06H8.03449C6.75572 1.64379e-06 5.52933 0.530558 4.62511 1.47495C3.72089 2.41935 3.2129 3.70023 3.2129 5.03581V34.9787L0.0820829 44.7918C-0.00868099 45.0769 -0.0245042 45.3823 0.0362648 45.676C0.0970339 45.9697 0.232167 46.2409 0.42756 46.4615C0.622953 46.682 0.871442 46.8437 1.14709 46.9297C1.42274 47.0158 1.71544 47.0229 1.99465 46.9505L14.6594 43.6437H40.1784C41.4572 43.6437 42.6836 43.1131 43.5878 42.1687C44.492 41.2243 45 39.9434 45 38.6078V14.2681L31.7567 28.1602ZM39.5966 0.258506C39.0064 0.0015329 38.3563 -0.0657722 37.7293 0.0651962C37.1023 0.196165 36.527 0.519455 36.0768 0.993734L20.8728 16.8062L19.2656 27.0121L28.9088 25.1992L44.0485 9.3196C44.3498 9.0075 44.589 8.63619 44.7521 8.22709C44.9153 7.81798 44.9994 7.37918 44.9994 6.93598C44.9994 6.49279 44.9153 6.05399 44.7521 5.64488C44.589 5.23578 44.3498 4.86447 44.0485 4.55237L40.6413 0.993734C40.3432 0.677887 39.9881 0.426858 39.5966 0.255149V0.258506Z" fill="black"/>
</svg>
