<svg width="60" height="55" viewBox="0 0 60 55" fill="none" xmlns="http://www.w3.org/2000/svg">
<path fill-rule="evenodd" clip-rule="evenodd" d="M20 16.0417C20 13.6105 21.0536 11.2789 22.9289 9.55985C24.8043 7.84077 27.3478 6.875 30 6.875C32.6522 6.875 35.1957 7.84077 37.0711 9.55985C38.9464 11.2789 40 13.6105 40 16.0417C40 18.4728 38.9464 20.8044 37.0711 22.5235C35.1957 24.2426 32.6522 25.2083 30 25.2083C27.3478 25.2083 24.8043 24.2426 22.9289 22.5235C21.0536 20.8044 20 18.4728 20 16.0417ZM20 29.7917C16.6848 29.7917 13.5054 30.9989 11.1612 33.1477C8.81696 35.2966 7.5 38.2111 7.5 41.25C7.5 43.0734 8.29018 44.822 9.6967 46.1114C11.1032 47.4007 13.0109 48.125 15 48.125H45C46.9891 48.125 48.8968 47.4007 50.3033 46.1114C51.7098 44.822 52.5 43.0734 52.5 41.25C52.5 38.2111 51.183 35.2966 48.8388 33.1477C46.4946 30.9989 43.3152 29.7917 40 29.7917H20Z" fill="black"/>
</svg>
