<svg width="59" height="83" viewBox="0 0 59 83" fill="none" xmlns="http://www.w3.org/2000/svg">
<path d="M5.50803e-08 5.45833C5.50803e-08 4.01069 0.518005 2.62235 1.44006 1.59871C2.36211 0.575074 3.61269 0 4.91667 0H54.0833C55.3873 0 56.6379 0.575074 57.5599 1.59871C58.482 2.62235 59 4.01069 59 5.45833V77.1317C59.0001 78.1199 58.7586 79.0896 58.3012 79.9373C57.8438 80.7851 57.1877 81.4791 56.4028 81.9453C55.618 82.4115 54.7339 82.6324 53.8448 82.5844C52.9557 82.5365 52.095 82.2215 51.3546 81.673L32.2288 67.5196C31.4208 66.9211 30.4713 66.6018 29.5 66.6018C28.5287 66.6018 27.5792 66.9211 26.7712 67.5196L7.64542 81.673C6.90496 82.2215 6.04429 82.5365 5.15521 82.5844C4.26613 82.6324 3.382 82.4115 2.59716 81.9453C1.81231 81.4791 1.15618 80.7851 0.698784 79.9373C0.241384 79.0896 -0.000133162 78.1199 5.50803e-08 77.1317V5.45833Z" fill="#E6F2F8"/>
</svg>
